<svg xmlns="http://www.w3.org/2000/svg" fill="none" viewBox="0 0 98 31">
  <path fill="#35317D"
    d="M11.624 8.95c0 1.61-1.15 2.76-2.53 2.76s-2.53-1.15-2.53-2.76c0-1.61 1.15-2.76 2.53-2.76s2.53 1.15 2.53 2.76Zm6.44 0c0-4.715-3.68-8.395-8.97-8.395-5.29 0-8.97 3.68-8.97 8.395s3.68 8.395 8.97 8.395c5.29 0 8.97-3.68 8.97-8.395ZM35.091.9h-13.57c0 10.35-1.38 11.73-2.99 11.73h-.46V17s1.15.345 2.3.345c3.68 0 6.67-2.99 6.67-11.615h2.07V17h5.98V.9ZM43.827 8.72V.9h-5.98V17h6.44l3.68-7.82V17h5.98V.9h-6.44l-3.68 7.82ZM70.284 17l2.76-8.97V17h5.98V.9h-8.51l-2.645 8.74L65.224.9h-8.51V17h5.98V8.03l2.76 8.97h4.83ZM81.78.9V17h5.98V5.96h3.68V17h5.98V.9H81.78Z" />
  <path fill="#F26839"
    d="M11.71 22.3H8.85v5.28H7.697V22.3h-2.86v5.28H3.68V22.3H.82V30h10.89v-7.7ZM20.514 22.3h-3.3l-1.32 3.08V22.3h-2.86V30h2.86v-3.08l1.54 3.08h3.3l-2.31-3.85 2.09-3.85Z" />
  <path fill="#F26839"
    d="M26.124 26.15c0 .77-.55 1.32-1.21 1.32-.66 0-1.21-.55-1.21-1.32s.55-1.32 1.21-1.32c.66 0 1.21.55 1.21 1.32Zm3.08 0c0-2.255-1.76-4.015-4.29-4.015-2.53 0-4.29 1.76-4.29 4.015s1.76 4.015 4.29 4.015c2.53 0 4.29-1.76 4.29-4.015ZM37.347 22.3h-6.49c0 4.95-.66 5.61-1.43 5.61h-.22V30s.55.165 1.1.165c1.76 0 3.19-1.43 3.19-5.555h.99V30h2.86v-7.7ZM44.11 22.3h-3.74L38.115 30h3.19l.22-1.1h1.43l.22 1.1h3.19s-2.244-7.656-2.255-7.7Zm-2.255 4.84.385-1.98.385 1.98h-.77ZM49.112 26.15c0 2.255 1.76 4.015 4.07 4.015 2.09 0 3.08-1.21 3.08-1.21l-1.32-2.09s-.66.605-1.43.605c-.77 0-1.32-.55-1.32-1.32s.55-1.32 1.32-1.32 1.43.605 1.43.605l1.32-2.09s-.99-1.21-3.08-1.21c-2.31 0-4.07 1.76-4.07 4.015ZM57.142 22.3V30h2.86v-5.28h1.76V30h2.86v-7.7h-7.48ZM71.22 26.15c0 .77-.55 1.32-1.21 1.32-.66 0-1.21-.55-1.21-1.32s.55-1.32 1.21-1.32c.66 0 1.21.55 1.21 1.32Zm3.08 0c0-2.255-1.76-4.015-4.29-4.015-2.53 0-4.29 1.76-4.29 4.015s1.76 4.015 4.29 4.015c2.53 0 4.29-1.76 4.29-4.015ZM78.704 22.19c-1.76 0-3.3.11-3.3.11V30h2.86v-2.475s.55.055.99.055c1.87 0 2.97-1.1 2.97-2.695 0-1.595-1.1-2.695-3.52-2.695Zm-.44 3.3v-1.21h.44c.385 0 .66.275.66.605 0 .33-.275.605-.66.605h-.44ZM82.773 22.3v2.53h2.09V30h2.86v-5.17h2.09V22.3h-7.04ZM95.48 22.3h-3.74L89.483 30h3.19l.22-1.1h1.43l.22 1.1h3.19s-2.244-7.656-2.255-7.7Zm-2.256 4.84.385-1.98.385 1.98h-.77Z" />
</svg>