<svg xmlns="http://www.w3.org/2000/svg" fill="none" width="auto" height="auto" viewBox="0 0 537 455">
  <path fill="#F3F4F6" stroke="#F26839" stroke-linecap="round" stroke-linejoin="round" stroke-width="2"
    d="M55.061 225.961a79.06 79.06 0 0 1-45.714-39.638 79.022 79.022 0 0 1 10.988-87.138A79.059 79.059 0 0 1 74.458 72.13a79.082 79.082 0 0 1 30.607 3.857 74.975 74.975 0 0 1 21.969-53.024A75.014 75.014 0 0 1 180.071 1c19.893 0 38.971 7.9 53.037 21.963a74.98 74.98 0 0 1 21.969 53.024 111.802 111.802 0 0 1 64.649-56.056 111.84 111.84 0 0 1 85.362 6.065 111.805 111.805 0 0 1 56.071 64.633 111.763 111.763 0 0 1-6.067 85.341 55.923 55.923 0 0 1 42.681-3.033 55.904 55.904 0 0 1 32.325 28.029 55.877 55.877 0 0 1 3.033 42.67 55.898 55.898 0 0 1-28.035 32.317 55.898 55.898 0 0 1 30.763 53.953 55.877 55.877 0 0 1-19.135 38.262 55.917 55.917 0 0 1-61.632 7.767 103.062 103.062 0 0 1-46.971 63.378 103.107 103.107 0 0 1-78.039 11.61 103.087 103.087 0 0 1-63.393-46.959 103.04 103.04 0 0 1-11.612-78.02A111.803 111.803 0 0 1 190.427 382a111.832 111.832 0 0 1-85.362-6.065 111.789 111.789 0 0 1-56.07-64.633 111.76 111.76 0 0 1 6.066-85.341Z" />
</svg>

<svg xmlns="http://www.w3.org/2000/svg" fill="none" width="auto" height="auto" viewBox="0 0 1179 901">
  <path fill="#F3F4F6" stroke="#F26839" stroke-linecap="round" stroke-linejoin="round" stroke-width="2"
    d="M119.934 447.446c-21.67-6.514-41.704-16.814-58.96-30.311s-31.395-29.927-41.61-48.352C9.147 350.358 3.056 330.299 1.437 309.751c-1.62-20.548 1.265-41.183 8.488-60.725 7.223-19.543 18.644-37.611 33.61-53.173 14.966-15.563 33.184-28.314 53.615-37.527 20.43-9.212 42.673-14.705 65.457-16.166 22.785-1.46 45.665 1.141 67.335 7.655 0-39.468 17.385-77.32 48.331-105.228S351.192 1 394.956 1c43.764 0 85.735 15.679 116.681 43.587 30.946 27.908 48.331 65.76 48.331 105.228 29.177-52.624 80.338-92.64 142.23-111.246 30.645-9.213 63.003-12.891 95.225-10.826 32.222 2.065 63.678 9.834 92.571 22.862 28.893 13.029 54.658 31.062 75.823 53.07 21.165 22.008 37.313 47.561 47.533 75.198 10.21 27.638 14.29 56.82 12 85.879-2.29 29.059-10.9 57.427-25.35 83.484 29.18-13.156 62.95-15.321 93.9-6.018 30.95 9.303 56.53 29.311 71.12 55.623 14.58 26.312 16.98 56.773 6.67 84.682-10.32 27.908-32.5 50.978-61.68 64.134 14.45 6.514 27.33 15.531 37.91 26.535 10.59 11.004 18.66 23.78 23.77 37.599 5.11 13.819 7.15 28.409 6 42.939-1.14 14.53-5.45 28.714-12.67 41.742-7.23 13.029-17.23 24.646-29.43 34.19-12.2 9.544-26.37 16.827-41.69 21.433-15.32 4.607-31.5 6.446-47.61 5.413-16.11-1.032-31.84-4.916-46.29-11.431-14.586 52.625-51.756 97.868-103.333 125.776-51.576 27.908-113.334 36.196-171.686 23.04-58.352-13.156-108.519-46.679-139.465-93.192-30.946-46.514-40.136-102.21-25.548-154.834-29.176 52.624-80.337 92.641-142.229 111.246-61.892 18.606-129.444 14.276-187.796-12.036-58.352-26.312-102.724-72.451-123.355-128.268-20.63-55.817-15.83-116.738 13.346-169.363Z" />
</svg>