<!-- <svg xmlns="http://www.w3.org/2000/svg" fill="none" viewBox="0 0 2000 937">
  <path fill="#35317D"
    d="M2000 467.677H0V39.91c77.744-28.33 129.026 1.875 153.846 90.608 60.009-48.572 111.291-38.61 153.846 29.881 40.522-23.988 71.291-12.854 92.308 33.406 11.555-57.049 42.324-78.984 92.308-65.805 32.65-79.8 83.932-101.063 153.846-63.798 76.974-29.209 128.256.116 153.846 87.973 16.753-51.117 47.522-67.121 92.308-48.011C923.846 23.098 975.128.563 1046.15 36.56c42.21-22.067 72.98-9.01 92.31 39.171 56.14-52.99 107.42-47.449 153.85 16.624 65.11-42.748 116.4-26.96 153.84 47.367 33.04-79.35 84.32-100.163 153.85-62.44 25.5-41.137 56.27-47.15 92.31-18.042 42.98-67.994 94.27-77.457 153.84-28.388 87.13-17.617 138.41 23.296 153.85 122.742v314.083Z" />
  <path fill="#F3F4F6"
    d="M2000 467.62H0v-88.939c3.754-112.844 57.518-167.226 161.29-163.142 23.647-44.442 55.905-53.807 96.774-28.093 54.077-11.351 86.336 12.376 96.774 71.18 63.19-48.213 116.954-37.958 161.291 30.766 59.14-52.616 112.903-46.774 161.29 17.525 21.166-93.913 74.928-129.361 161.291-106.346 67.168-43.886 120.931-29.31 161.29 43.732 70.31 6.295 102.56 47.672 96.77 124.133 6.28-110.106 60.04-161.744 161.29-154.914 42.79-70.411 96.54-82.356 161.3-35.839 93.24-15.531 147.01 27.406 161.28 128.811 68.5-42.446 126.48-64.174 165.51 10.309 58.59-53.212 108.14-10.207 157.08 53.518 9.33-60.004 41.59-84.923 96.77-74.76V467.62Z" />
  <path fill="#F26839"
    d="M2000 468.307H0V336.804c56.82-56.281 111.467-53.941 163.935 7.019 66.42-45.983 121.065-33.352 163.934 37.895 59.645-53.262 114.29-47.904 163.935 16.074 50.173-16.518 82.959 2.131 98.36 55.949 75.601-36.135 126.148-67.205 159.836 13.878 16.403-99.626 75.146-87.098 168.033-69.504 68.534-43.708 123.177-28.805 163.937 44.71 43.21-23.984 75.16-20.873 97.52 25.482 16.04-53.134 49.66-63.031 99.2-45.838 9.64-59.993 42.43-84.821 98.36-74.485 68.44-43.814 123.09-29.014 163.94 44.402 68.83 3.497 96.83-.621 96.83 75.291-.62-117.887 55.56-136.447 165.46-137.1 78.49 13.851 87.75 51.372 98 137.73-5.57-76.317 27.57-108.131 98.72-114.109v114.109Z" />
  <path fill="#35317D"
    d="M0 468.936h2000v427.767c-77.74 28.33-129.03-1.874-153.85-90.608-60.01 48.572-111.29 38.611-153.84-29.881-40.52 23.988-71.29 12.854-92.31-33.406-11.56 57.049-42.32 78.985-92.31 65.806-32.65 79.798-83.93 101.063-153.84 63.798-76.98 29.208-128.26-.116-153.85-87.973-16.75 51.116-47.52 67.121-92.31 48.011-31.54 81.066-82.82 103.601-153.844 67.603-42.205 22.067-72.974 9.01-92.308-39.171-56.137 52.991-107.419 47.449-153.846-16.624-65.115 42.748-116.397 26.96-153.846-47.367-33.038 79.351-84.32 100.164-153.846 62.44-25.5 41.138-56.269 47.151-92.308 18.043-42.987 67.994-94.269 77.457-153.846 28.387C66.718 923.379 15.436 882.466 0 783.02V468.936Z" />
  <path fill="#F3F4F6"
    d="M0 468.994h2000v88.938c-3.75 112.845-57.52 167.226-161.29 163.142-23.65 44.442-55.9 53.807-96.77 28.093-54.08 11.352-86.34-12.376-96.78-71.18-63.19 48.213-116.95 37.958-161.29-30.766-59.14 52.616-112.9 46.774-161.29-17.525-21.16 93.913-74.93 129.361-161.29 106.346-67.17 43.886-120.93 29.31-161.29-43.731-70.305-6.295-102.563-47.673-96.774-124.134-6.272 110.107-60.036 161.745-161.29 154.914-42.782 70.411-96.539 82.357-161.295 35.839-93.244 15.532-147.013-27.405-161.282-128.811-68.5 42.446-126.474 64.175-165.513-10.309-58.59 53.212-108.141 10.207-157.077-53.517-9.333 60.003-41.59 84.922-96.769 74.76V468.994Z" />
  <path fill="#F26839"
    d="M0 468.307h2000v131.502c-56.82 56.281-111.47 53.941-163.93-7.019-66.43 45.984-121.07 33.353-163.94-37.895-59.64 53.262-114.29 47.904-163.93-16.074-50.18 16.518-82.96-2.131-98.36-55.948-75.61 36.135-126.15 67.205-159.84-13.879-16.4 99.626-75.15 87.098-168.03 69.504-68.54 43.708-123.182 28.805-163.937-44.71-43.215 23.985-75.161 20.874-97.52-25.481-16.039 53.133-49.666 63.03-99.201 45.837-9.645 59.993-42.427 84.821-98.363 74.486-68.436 43.813-123.09 29.013-163.936-44.403-68.833-3.496-96.833.621-96.833-75.29.615 117.886-55.565 136.447-165.462 137.1-78.487-13.852-87.744-51.372-98-137.73C104.295 544.623 71.154 576.438 0 582.415V468.307Z" />
</svg> -->

<svg xmlns="http://www.w3.org/2000/svg" fill="none" viewBox="0 0 2000 937">
  <path fill="#35317D"
    d="M2000 467.677H0V39.91c77.744-28.33 129.026 1.875 153.846 90.608 60.009-48.572 111.291-38.61 153.846 29.881 40.522-23.988 71.291-12.854 92.308 33.406 11.555-57.049 42.324-78.984 92.308-65.805 32.65-79.8 83.932-101.063 153.846-63.798 76.974-29.209 128.256.116 153.846 87.973 16.753-51.117 47.522-67.121 92.308-48.011C923.846 23.098 975.128.563 1046.15 36.56c42.21-22.067 72.98-9.01 92.31 39.171 56.14-52.99 107.42-47.449 153.85 16.624 65.11-42.748 116.4-26.96 153.84 47.367 33.04-79.35 84.32-100.163 153.85-62.44 25.5-41.137 56.27-47.15 92.31-18.042 42.98-67.994 94.27-77.457 153.84-28.388 87.13-17.617 138.41 23.296 153.85 122.742v314.083Z" />
  <path fill="#E5E7EB"
    d="M2000 467.62H0v-88.939c3.754-112.844 57.518-167.226 161.29-163.142 23.647-44.442 55.905-53.807 96.774-28.093 54.077-11.351 86.336 12.376 96.774 71.18 63.19-48.213 116.954-37.958 161.291 30.766 59.14-52.616 112.903-46.774 161.29 17.525 21.166-93.913 74.928-129.361 161.291-106.346 67.168-43.886 120.931-29.31 161.29 43.732 70.31 6.295 102.56 47.672 96.77 124.133 6.28-110.106 60.04-161.744 161.29-154.914 42.79-70.411 96.54-82.356 161.3-35.839 93.24-15.531 147.01 27.406 161.28 128.811 68.5-42.446 126.48-64.174 165.51 10.309 58.59-53.212 108.14-10.207 157.08 53.518 9.33-60.004 41.59-84.923 96.77-74.76V467.62Z" />
  <path fill="#F26839"
    d="M2000 468.307H0V336.804c56.82-56.281 111.467-53.941 163.935 7.019 66.42-45.983 121.065-33.352 163.934 37.895 59.645-53.262 114.29-47.904 163.935 16.074 50.173-16.518 82.959 2.131 98.36 55.949 75.601-36.135 126.148-67.205 159.836 13.878 16.403-99.626 75.146-87.098 168.033-69.504 68.534-43.708 123.177-28.805 163.937 44.71 43.21-23.984 75.16-20.873 97.52 25.482 16.04-53.134 49.66-63.031 99.2-45.838 9.64-59.993 42.43-84.821 98.36-74.485 68.44-43.814 123.09-29.014 163.94 44.402 68.83 3.497 96.83-.621 96.83 75.291-.62-117.887 55.56-136.447 165.46-137.1 78.49 13.851 87.75 51.372 98 137.73-5.57-76.317 27.57-108.131 98.72-114.109v114.109Z" />
  <path fill="#35317D"
    d="M0 468.936h2000v427.767c-77.74 28.33-129.03-1.874-153.85-90.608-60.01 48.572-111.29 38.611-153.84-29.881-40.52 23.988-71.29 12.854-92.31-33.406-11.56 57.049-42.32 78.985-92.31 65.806-32.65 79.798-83.93 101.063-153.84 63.798-76.98 29.208-128.26-.116-153.85-87.973-16.75 51.116-47.52 67.121-92.31 48.011-31.54 81.066-82.82 103.601-153.844 67.603-42.205 22.067-72.974 9.01-92.308-39.171-56.137 52.991-107.419 47.449-153.846-16.624-65.115 42.748-116.397 26.96-153.846-47.367-33.038 79.351-84.32 100.164-153.846 62.44-25.5 41.138-56.269 47.151-92.308 18.043-42.987 67.994-94.269 77.457-153.846 28.387C66.718 923.379 15.436 882.466 0 783.02V468.936Z" />
  <path fill="#E5E7EB"
    d="M0 468.994h2000v88.938c-3.75 112.845-57.52 167.226-161.29 163.142-23.65 44.442-55.9 53.807-96.77 28.093-54.08 11.352-86.34-12.376-96.78-71.18-63.19 48.213-116.95 37.958-161.29-30.766-59.14 52.616-112.9 46.774-161.29-17.525-21.16 93.913-74.93 129.361-161.29 106.346-67.17 43.886-120.93 29.31-161.29-43.731-70.305-6.295-102.563-47.673-96.774-124.134-6.272 110.107-60.036 161.745-161.29 154.914-42.782 70.411-96.539 82.357-161.295 35.839-93.244 15.532-147.013-27.405-161.282-128.811-68.5 42.446-126.474 64.175-165.513-10.309-58.59 53.212-108.141 10.207-157.077-53.517-9.333 60.003-41.59 84.922-96.769 74.76V468.994Z" />
  <path fill="#F26839"
    d="M0 468.307h2000v131.502c-56.82 56.281-111.47 53.941-163.93-7.019-66.43 45.984-121.07 33.353-163.94-37.895-59.64 53.262-114.29 47.904-163.93-16.074-50.18 16.518-82.96-2.131-98.36-55.948-75.61 36.135-126.15 67.205-159.84-13.879-16.4 99.626-75.15 87.098-168.03 69.504-68.54 43.708-123.182 28.805-163.937-44.71-43.215 23.985-75.161 20.874-97.52-25.481-16.039 53.133-49.666 63.03-99.201 45.837-9.645 59.993-42.427 84.821-98.363 74.486-68.436 43.813-123.09 29.013-163.936-44.403-68.833-3.496-96.833.621-96.833-75.29.615 117.886-55.565 136.447-165.462 137.1-78.487-13.852-87.744-51.372-98-137.73C104.295 544.623 71.154 576.438 0 582.415V468.307Z" />
</svg>